<?xml version="1.0" encoding="utf-8"?>
<svg version="1.1" xmlns="http://www.w3.org/2000/svg" xmlns:xlink="http://www.w3.org/1999/xlink" height="24" width="24">
  <defs>
    <path id="path-1" opacity="1" fill-rule="evenodd" d="M19.427860260009766,4.7319135665893555 L16.60198974609375,0.7308847308158875 C16.26865577697754,0.2561863958835602 15.830845832824707,0 15.378108978271484,0 L9.074626922607422,0 C8.57711410522461,0 8.104477882385254,0.3089306354522705 7.76616907119751,0.8589779138565063 L5.378109455108643,4.7319135665893555 C5.228855609893799,4.980564594268799 5.014925479888916,5.116192817687988 4.796020030975342,5.123727798461914 L2.6567163467407227,5.123727798461914 C1.1890547275543213,5.116192817687988 0,6.917032718658447 0,9.132291793823242 L0,10.707083702087402 C0,12.198992729187012 0.8009950518608093,13.412111282348633 1.79104483127594,13.412111282348633 L2.059701442718506,13.412111282348633 C2.41791033744812,15.310904502868652 3.72139310836792,16.40346336364746 4.975124359130859,15.86095142364502 C5.756218910217285,15.521881103515625 6.368159294128418,14.595088958740234 6.592039585113525,13.412111282348633 L13.427860260009766,13.412111282348633 C13.786069869995117,15.310904502868652 15.08955192565918,16.40346336364746 16.34328269958496,15.86095142364502 C17.124378204345703,15.521881103515625 17.736318588256836,14.595088958740234 17.9601993560791,13.412111282348633 L18.2039794921875,13.412111282348633 C19.189054489135742,13.419646263122559 19.995025634765625,12.206527709960938 20,10.714618682861328 L20,6.713590621948242 C19.995025634765625,5.960101127624512 19.786069869995117,5.244286060333252 19.427860260009766,4.7319135665893555 L10.641791343688965,5.123727798461914 L6.502487659454346,5.123727798461914 L8.492537498474121,1.8987932205200195 C8.641791343688965,1.650141716003418 8.855721473693848,1.514513611793518 9.074626922607422,1.5069787502288818 L10.641791343688965,1.5069787502288818 L10.641791343688965,5.123727798461914 L11.636816024780273,5.123727798461914 L14.4179105758667,5.123727798461914 L13.313432693481445,1.5069787502288818 L11.636816024780273,1.5069787502288818 L11.636816024780273,5.123727798461914 L15.368158340454102,1.5069787502288818 C15.57711410522461,1.5069787502288818 15.776119232177734,1.6275370121002197 15.920397758483887,1.8385140895843506 L18.233829498291016,5.123727798461914 L15.507462501525879,5.123727798461914 L14.402984619140625,1.5069787502288818 L15.368158340454102,1.5069787502288818 L6.6517415046691895,11.897597312927246 L10.641790390014648,11.897597312927246 L10.641790390014648,6.623171806335449 L4.950248718261719,6.623171806335449 C4.9303483963012695,6.623171806335449 4.9154229164123535,6.615636825561523 4.895522594451904,6.615636825561523 C4.860696315765381,6.623171806335449 4.830845832824707,6.623171806335449 4.796020030975342,6.623171806335449 L2.6517412662506104,6.623171806335449 C1.7363183498382568,6.623171806335449 0.9900497794151306,7.745871067047119 0.9900497794151306,9.132291793823242 L0.9900497794151306,10.707084655761719 C0.9950249195098877,11.370155334472656 1.353233814239502,11.905132293701172 1.79104483127594,11.897597312927246 L1.9900498390197754,11.897597312927246 C2.1442785263061523,10.345409393310547 2.9502487182617188,9.124756813049316 3.9751243591308594,8.89117431640625 C5.263681888580322,8.604848861694336 6.462686538696289,9.946060180664062 6.6517415046691895,11.897597312927246 L18.208955764770508,11.905132293701172 C18.64179229736328,11.905132293701172 19,11.370155334472656 19.004974365234375,10.707084655761719 L19.004974365234375,6.72112512588501 C19.004974365234375,6.683450698852539 19,6.653311252593994 19,6.615636825561523 C18.970149993896484,6.623171806335449 18.945274353027344,6.630706787109375 18.915422439575195,6.630706787109375 L11.636816024780273,6.630706787109375 L11.636816024780273,11.905132293701172 L13.363183975219727,11.905132293701172 C13.517413139343262,10.352944374084473 14.323383331298828,9.132291793823242 15.348258972167969,8.898710250854492 C16.636816024780273,8.604848861694336 17.8358211517334,9.953594207763672 18.02487564086914,11.905132293701172 L18.208955764770508,11.905132293701172 L4.318408012390137,14.504670143127441 C3.567164182662964,14.504670143127441 2.955223798751831,13.57787799835205 2.955223798751831,12.440109252929688 C2.955223798751831,11.302340507507324 3.567164182662964,10.375548362731934 4.318408012390137,10.375548362731934 C5.0696516036987305,10.375548362731934 5.681591987609863,11.302340507507324 5.681591987609863,12.440109252929688 C5.681591987609863,13.585412979125977 5.0696516036987305,14.504670143127441 4.318408012390137,14.504670143127441 L15.691542625427246,14.504670143127441 C14.940299034118652,14.504670143127441 14.32835865020752,13.57787799835205 14.32835865020752,12.440109252929688 C14.32835865020752,11.302340507507324 14.940299034118652,10.375548362731934 15.691542625427246,10.375548362731934 C16.442787170410156,10.375548362731934 17.05472755432129,11.302340507507324 17.05472755432129,12.440109252929688 C17.05472755432129,13.585412979125977 16.442787170410156,14.504670143127441 15.691542625427246,14.504670143127441 L19.427860260009766,4.7319135665893555Z"/>
    <mask id="mask-2" maskUnits="userSpaceOnUse" maskContentUnits="userSpaceOnUse">
      <rect opacity="1" x="0" y="0" width="24" height="24" fill="Black"/>
      <use xlink:href="#path-1" fill="White"/>
    </mask>
    <rect id="rect-3" opacity="1" x="0" y="0" width="24" height="24" rx="0" ry="0"/>
  </defs>
  <g opacity="1">
    <g opacity="1">
      <g opacity="1">
        <use xlink:href="#path-1" fill="rgb(128,151,177)" fill-opacity="1"/>
      </g>
      <g mask="url(#mask-2)">
        <g transform="translate(-2, -4)" opacity="1">
          <g opacity="1">
            <use xlink:href="#rect-3" fill="rgb(191,197,210)" fill-opacity="1"/>
          </g>
        </g>
      </g>
    </g>
  </g>
</svg>