<?xml version="1.0" encoding="utf-8"?>
<svg version="1.1" xmlns="http://www.w3.org/2000/svg" xmlns:xlink="http://www.w3.org/1999/xlink" height="27.45454545454595" width="36.36363636363603">
  <defs>
    <path id="path-1" opacity="1" fill-rule="evenodd" d="M13.287435531616211,0.030868642032146454 L19.4836483001709,1.9088973999023438 C19.793458938598633,2.012275218963623 20,2.270719528198242 20,2.580852746963501 L20,19.2935848236084 C20,19.51757049560547 19.879518508911133,19.72432518005371 19.707401275634766,19.862163543701172 C19.5869197845459,19.94831085205078 19.44922637939453,20 19.294321060180664,20 C19.225473403930664,20 19.156625747680664,19.982770919799805 19.087779998779297,19.965539932250977 L13.098106384277344,18.156431198120117 L7.108433723449707,19.965539932250977 C7.039587020874023,19.982770919799805 6.97074031829834,20 6.901893138885498,20 C6.8330464363098145,20 6.764199733734131,19.982770919799805 6.695353031158447,19.965539932250977 L0.4991394281387329,18.08751106262207 C0.20654045045375824,18.00136375427246 0,17.725690841674805 0,17.415555953979492 L0,0.7028238773345947 C0,0.47883880138397217 0.1204819306731224,0.2720833420753479 0.2925989627838135,0.134246364235878 C0.46471601724624634,0.01363902073353529 0.7056798338890076,-0.0380498431622982 0.912220299243927,0.030868642032146454 L6.901893138885498,1.857208490371704 L12.874354362487793,0.030868642032146454 L12.908778190612793,0.030868642032146454 C12.943201065063477,0.01363902073353529 12.960412979125977,0.01363902073353529 12.994836807250977,0.01363902073353529 L13.166953086853027,0.01363902073353529 C13.201376914978027,0.01363902073353529 13.218588829040527,0.030868642032146454 13.253011703491211,0.030868642032146454 L13.287435531616211,0.030868642032146454 L1.4113596677780151,16.915897369384766 L6.196213722229004,18.36318588256836 L6.196213722229004,3.09774112701416 L1.4113596677780151,1.6504530906677246 L1.4113596677780151,16.915897369384766 L12.392427444458008,16.89866828918457 L7.60757303237915,18.36318588256836 L7.60757303237915,3.1149709224700928 L12.392427444458008,1.6504530906677246 L12.392427444458008,16.89866828918457 L13.803786277770996,16.915897369384766 L18.588640213012695,18.36318588256836 L18.588640213012695,3.09774112701416 L13.803786277770996,1.6504530906677246 L13.803786277770996,16.915897369384766 L13.287435531616211,0.030868642032146454Z"/>
    <mask id="mask-2" maskUnits="userSpaceOnUse" maskContentUnits="userSpaceOnUse">
      <rect opacity="1" x="0" y="0" width="36.36363636363603" height="27.45454545454595" fill="Black"/>
      <use xlink:href="#path-1" fill="White"/>
    </mask>
    <rect id="rect-3" opacity="1" x="0" y="0" width="36.36363636363636" height="26.18181818181818" rx="0" ry="0"/>
  </defs>
  <g transform="translate(6.1818181818180165, 3.4545454545459506)" opacity="1">
    <g opacity="1">
      <g opacity="1">
        <use xlink:href="#path-1" fill="rgb(128,151,177)" fill-opacity="1"/>
      </g>
      <g mask="url(#mask-2)">
        <g transform="translate(-8.18181818181818, -5.454545454545453)" opacity="1">
          <g opacity="1">
            <use xlink:href="#rect-3" fill="rgb(191,197,210)" fill-opacity="1"/>
          </g>
        </g>
      </g>
    </g>
  </g>
</svg>