<?xml version="1.0" encoding="utf-8"?>
<svg version="1.1" xmlns="http://www.w3.org/2000/svg" xmlns:xlink="http://www.w3.org/1999/xlink" height="24" width="24">
  <defs>
    <path id="path-1" opacity="1" fill-rule="evenodd" d="M17.57248878479004,7.6623735427856445 L18.976282119750977,7.900516986846924 C19.57373046875,8.000787734985352 20.008237838745117,8.514677047729492 19.999881744384766,9.12048053741455 L19.999881744384766,10.879401206970215 C19.999881744384766,11.485204696655273 19.56537437438965,11.999093055725098 18.967926025390625,12.099364280700684 L17.564132690429688,12.333330154418945 C17.422080993652344,12.801260948181152 17.229896545410156,13.256658554077148 17.00010871887207,13.695343971252441 L17.827342987060547,14.856816291809082 C18.17829132080078,15.349815368652344 18.119800567626953,16.0224666595459 17.693649291992188,16.448617935180664 L16.448617935180664,17.693649291992188 C16.21465301513672,17.927614212036133 15.90548324584961,18.057130813598633 15.575425148010254,18.057130813598633 C15.316390991210938,18.057130813598633 15.065713882446289,17.977750778198242 14.856816291809082,17.827342987060547 L13.699522018432617,17.00010871887207 C13.2650146484375,17.229896545410156 12.809617042541504,17.417903900146484 12.337508201599121,17.564132690429688 L12.099364280700684,18.967926025390625 C11.999093055725098,19.56537437438965 11.485204696655273,19.999881744384766 10.879401206970215,19.999881744384766 L9.116302490234375,19.999881744384766 C8.510499000549316,19.999881744384766 7.996610164642334,19.56537437438965 7.896339416503906,18.967926025390625 L7.6623735427856445,17.564132690429688 C7.206976413726807,17.422080993652344 6.764112949371338,17.242429733276367 6.34213924407959,17.020998001098633 L5.16813325881958,17.856590270996094 C4.959235191345215,18.006996154785156 4.712735652923584,18.086376190185547 4.453702449798584,18.086376190185547 C4.12364387512207,18.086376190185547 3.8144750595092773,17.956859588623047 3.5805094242095947,17.7228946685791 L2.3354780673980713,16.477863311767578 C1.9051485061645508,16.051712036132812 1.8508350849151611,15.379060745239258 2.2017834186553955,14.886061668395996 L3.024841070175171,13.741301536560059 C2.7908754348754883,13.306794166564941 2.598689317703247,12.851396560668945 2.452461004257202,12.383465766906738 L1.0319554805755615,12.141143798828125 C0.4345075488090515,12.040872573852539 0,11.526984214782715 0,10.921180725097656 L0,9.162260055541992 C0,8.556456565856934 0.4345075488090515,8.04256820678711 1.0319554805755615,7.942296981811523 L2.419037342071533,7.708331108093262 C2.5610878467559814,7.236221790313721 2.744917869567871,6.780824661254883 2.974705696105957,6.34213924407959 L2.1391141414642334,5.16813325881958 C1.7881656885147095,4.675134181976318 1.846657156944275,4.002482891082764 2.272808790206909,3.576331377029419 L3.5220179557800293,2.3313002586364746 C3.751805543899536,2.097334623336792 4.065152645111084,1.9678179025650024 4.395211219787598,1.9678179025650024 C4.654244422912598,1.9678179025650024 4.904922008514404,2.047199010848999 5.113819599151611,2.197605609893799 L6.262757778167725,3.024841070175171 C6.697265625,2.7908754348754883 7.152662754058838,2.598689317703247 7.620594024658203,2.452461004257202 L7.862915515899658,1.0319554805755615 C7.963186740875244,0.4345075488090515 8.477075576782227,0 9.082879066467285,0 L10.841798782348633,0 C11.447603225708008,0 11.961491584777832,0.4345075488090515 12.061762809753418,1.0319554805755615 L12.29572868347168,2.419037342071533 C12.784549713134766,2.565265655517578 13.256658554077148,2.761629819869995 13.707878112792969,2.9997732639312744 L14.86935043334961,2.1725378036499023 C15.078248023986816,2.0221314430236816 15.324747085571289,1.942750096321106 15.583780288696289,1.942750096321106 C15.913839340209961,1.942750096321106 16.223007202148438,2.0722668170928955 16.456974029541016,2.306232452392578 L17.70200538635254,3.5512638092041016 C18.132333755493164,3.9774153232574463 18.186647415161133,4.650066375732422 17.8356990814209,5.143065452575684 L17.008464813232422,6.300359725952148 C17.238252639770508,6.734867095947266 17.426259994506836,7.190264701843262 17.57248878479004,7.6623735427856445 L18.788272857666016,10.988027572631836 C18.842586517333984,10.9796724319458 18.88018798828125,10.933714866638184 18.884366989135742,10.879401206970215 L18.884366989135742,9.12048053741455 C18.884366989135742,9.066167831420898 18.846765518188477,9.020210266113281 18.792451858520508,9.01185417175293 L17.037710189819336,8.715218544006348 C16.82045555114746,8.681795120239258 16.640804290771484,8.518855094909668 16.586490631103516,8.30160140991211 C16.4277286529541,7.687441349029541 16.185405731201172,7.098349094390869 15.859525680541992,6.551036834716797 C15.746721267700195,6.358850955963135 15.755077362060547,6.11652946472168 15.884593963623047,5.936877250671387 L16.916549682617188,4.487125873565674 C16.9457950592041,4.441168785095215 16.94161605834961,4.38267707824707 16.904014587402344,4.345075607299805 L15.65898323059082,3.1000442504882812 C15.629737854003906,3.070798635482788 15.596315383911133,3.0666205883026123 15.57960319519043,3.0666205883026123 C15.558712005615234,3.0666205883026123 15.537822723388672,3.0749764442443848 15.51693344116211,3.087510585784912 L14.075538635253906,4.12364387512207 C13.891708374023438,4.25316047668457 13.653564453125,4.261516571044922 13.46137809753418,4.148711681365967 C12.901531219482422,3.818653106689453 12.299905776977539,3.5721535682678223 11.669034957885742,3.41339111328125 C11.451780319213867,3.3590774536132812 11.288841247558594,3.1794252395629883 11.251239776611328,2.957993745803833 L10.958782196044922,1.2157855033874512 C10.95042610168457,1.1614720821380615 10.904468536376953,1.1238704919815063 10.850154876708984,1.1238704919815063 L9.091235160827637,1.1238704919815063 C9.036921501159668,1.1238704919815063 8.99096393585205,1.1614720821380615 8.982608795166016,1.2157855033874512 L8.681795120239258,2.9830613136291504 C8.644193649291992,3.200315475463867 8.481252670288086,3.3757896423339844 8.268177032470703,3.4342808723449707 C7.654017925262451,3.593043327331543 7.064925670623779,3.8437209129333496 6.521791458129883,4.1696014404296875 C6.3296051025390625,4.282406330108643 6.087283611297607,4.274050235748291 5.903453826904297,4.144533634185791 L4.462058067321777,3.116755962371826 C4.445346832275391,3.104222297668457 4.424456596374512,3.0958662033081055 4.399389266967773,3.0958662033081055 C4.3784990310668945,3.0958662033081055 4.3492536544799805,3.1000442504882812 4.320007801055908,3.1292901039123535 L3.0749764442443848,4.374321460723877 C3.037374973297119,4.411922931671143 3.0331969261169434,4.474592208862305 3.0624427795410156,4.516371726989746 L4.10275411605835,5.978656768798828 C4.23227071762085,6.158308982849121 4.244804382324219,6.3964524269104 4.131999969482422,6.5886383056640625 C3.8102970123291016,7.135951042175293 3.572153329849243,7.729220867156982 3.4175689220428467,8.34338092803955 C3.363255500793457,8.56063461303711 3.183603286743164,8.7235746383667 2.9621715545654297,8.761176109313965 L1.2199634313583374,9.053633689880371 C1.1656500101089478,9.061989784240723 1.1280484199523926,9.10794734954834 1.1280484199523926,9.162261009216309 L1.1280484199523926,10.921180725097656 C1.1280484199523926,10.975494384765625 1.1656500101089478,11.021451950073242 1.2199634313583374,11.029808044433594 L2.987239360809326,11.330620765686035 C3.204493284225464,11.3682222366333 3.379967451095581,11.53116226196289 3.4384586811065674,11.744237899780273 C3.5972211360931396,12.3583984375 3.8478987216949463,12.947489738464355 4.173779487609863,13.49062442779541 C4.28658390045166,13.68281078338623 4.278228282928467,13.925131797790527 4.148711204528809,14.108962059020996 L3.120934009552002,15.550357818603516 C3.091688394546509,15.596314430236816 3.0958662033081055,15.654806137084961 3.13346791267395,15.692407608032227 L4.3784990310668945,16.93743896484375 C4.407744884490967,16.966684341430664 4.441168785095215,16.970861434936523 4.457880020141602,16.970861434936523 C4.4787702560424805,16.970861434936523 4.499660015106201,16.962507247924805 4.520549774169922,16.94997215270996 L5.982834815979004,15.909661293029785 C6.078927993774414,15.83863639831543 6.195910453796387,15.80521297454834 6.308715343475342,15.80521297454834 C6.404808521270752,15.80521297454834 6.50507926940918,15.830280303955078 6.592816352844238,15.880415916442871 C7.131772994995117,16.189584732055664 7.708331108093262,16.4277286529541 8.305778503417969,16.582311630249023 C8.518854141235352,16.636625289916992 8.681795120239258,16.81209945678711 8.719396591186523,17.033531188964844 L9.01185417175293,18.78827476501465 C9.020210266113281,18.842588424682617 9.066167831420898,18.880189895629883 9.12048053741455,18.880189895629883 L10.879400253295898,18.880189895629883 C10.933713912963867,18.880189895629883 10.979671478271484,18.842588424682617 10.988027572631836,18.78827476501465 L11.284662246704102,17.033531188964844 C11.318086624145508,16.8162784576416 11.481025695800781,16.636625289916992 11.698280334472656,16.582311630249023 C12.312440872192383,16.42354965209961 12.901531219482422,16.181228637695312 13.448844909667969,15.855348587036133 C13.641031265258789,15.74254322052002 13.883352279663086,15.750899314880371 14.063003540039062,15.880415916442871 L15.512754440307617,16.912370681762695 C15.52946662902832,16.924903869628906 15.550357818603516,16.933259963989258 15.575424194335938,16.933259963989258 C15.596315383911133,16.933259963989258 15.625560760498047,16.9290828704834 15.654806137084961,16.899837493896484 L16.899837493896484,15.654806137084961 C16.93743896484375,15.617204666137695 16.94161605834961,15.554534912109375 16.912370681762695,15.512755393981934 L15.880414962768555,14.058826446533203 C15.750898361206055,13.874996185302734 15.742542266845703,13.636853218078613 15.855348587036133,13.444666862487793 C16.181228637695312,12.897354125976562 16.42354965209961,12.308262825012207 16.582311630249023,11.694103240966797 C16.636625289916992,11.481026649475098 16.81209945678711,11.318086624145508 17.033531188964844,11.280485153198242 L18.788272857666016,10.988027572631836 L10.002029418945312,5.6820220947265625 C7.620594024658203,5.6820220947265625 5.68619966506958,7.6164164543151855 5.68619966506958,9.997852325439453 C5.68619966506958,12.379287719726562 7.620594024658203,14.313681602478027 10.002029418945312,14.313681602478027 C12.383464813232422,14.313681602478027 14.317859649658203,12.379287719726562 14.317859649658203,9.997852325439453 C14.317859649658203,7.6164164543151855 12.383464813232422,5.6820220947265625 10.002029418945312,5.6820220947265625 L6.814248561859131,9.997852325439453 C6.814248561859131,11.7567720413208 8.243109703063965,13.185632705688477 10.002029418945312,13.185632705688477 C11.760950088500977,13.185632705688477 13.189811706542969,11.7567720413208 13.189811706542969,9.997852325439453 C13.189811706542969,8.238931655883789 11.760950088500977,6.810070514678955 10.002029418945312,6.810070514678955 C8.243109703063965,6.810070514678955 6.814248561859131,8.238931655883789 6.814248561859131,9.997852325439453 L17.57248878479004,7.6623735427856445Z"/>
    <mask id="mask-2" maskUnits="userSpaceOnUse" maskContentUnits="userSpaceOnUse">
      <rect opacity="1" x="0" y="0" width="24" height="24" fill="Black"/>
      <use xlink:href="#path-1" fill="White"/>
    </mask>
    <rect id="rect-3" opacity="1" x="0" y="0" width="24" height="24" rx="0" ry="0"/>
  </defs>
  <g opacity="1">
    <g opacity="1">
      <g opacity="1">
        <use xlink:href="#path-1" fill="rgb(128,151,177)" fill-opacity="1"/>
      </g>
      <g mask="url(#mask-2)">
        <g transform="translate(-2, -2)" opacity="1">
          <g opacity="1">
            <use xlink:href="#rect-3" fill="rgb(191,197,210)" fill-opacity="1"/>
          </g>
        </g>
      </g>
    </g>
  </g>
</svg>