<?xml version="1.0" encoding="utf-8"?>
<svg version="1.1" xmlns="http://www.w3.org/2000/svg" xmlns:xlink="http://www.w3.org/1999/xlink" height="24" width="24">
  <defs>
    <path id="path-1" opacity="1" fill-rule="evenodd" d="M11.953125,0 L8.046875,0 C7.723281383514404,0 7.4609375,0.312313973903656 7.4609375,0.6975446343421936 L7.4609375,19.298734664916992 C7.4609375,19.6839656829834 7.723281383514404,19.996280670166016 8.046875,19.996280670166016 L11.953125,19.996280670166016 C12.276718139648438,19.996280670166016 12.5390625,19.6839656829834 12.5390625,19.298734664916992 L12.5390625,0.6975446343421936 C12.5390625,0.312313973903656 12.276718139648438,0 11.953125,0 L8.6328125,10.2306547164917 L11.3671875,10.2306547164917 L11.3671875,1.3950892686843872 L8.6328125,1.3950892686843872 L8.6328125,10.2306547164917 L4.4921875,8.370535850524902 L0.5859375,8.370535850524902 C0.26234376430511475,8.370535850524902 0,8.682849884033203 0,9.06808090209961 L0,19.298736572265625 C0,19.6839656829834 0.26234376430511475,19.996280670166016 0.5859375,19.996280670166016 L4.4921875,19.996280670166016 C4.815781116485596,19.996280670166016 5.078125,19.6839656829834 5.078125,19.298736572265625 L5.078125,9.06808090209961 C5.078125,8.682849884033203 4.815781116485596,8.370535850524902 4.4921875,8.370535850524902 L15.5078125,8.370535850524902 L19.4140625,8.370535850524902 C19.737655639648438,8.370535850524902 20,8.682849884033203 20,9.06808090209961 L20,19.298736572265625 C20,19.6839656829834 19.737655639648438,19.996280670166016 19.4140625,19.996280670166016 L15.5078125,19.996280670166016 C15.184218406677246,19.996280670166016 14.921875,19.6839656829834 14.921875,19.298736572265625 L14.921875,9.06808090209961 C14.921875,8.682849884033203 15.184218406677246,8.370535850524902 15.5078125,8.370535850524902 L3.90625,14.880952835083008 L1.171875,14.880952835083008 L1.171875,9.765625 L3.90625,9.765625 L3.90625,14.880952835083008 L16.09375,14.880952835083008 L18.828125,14.880952835083008 L18.828125,9.765625 L16.09375,9.765625 L16.09375,14.880952835083008 L11.3671875,18.6011905670166 L8.6328125,18.6011905670166 L8.6328125,11.625743865966797 L11.3671875,11.625743865966797 L11.3671875,18.6011905670166 L1.171875,18.6011905670166 L3.90625,18.6011905670166 L3.90625,16.27604103088379 L1.171875,16.27604103088379 L1.171875,18.6011905670166 L18.828125,18.6011905670166 L16.09375,18.6011905670166 L16.09375,16.27604103088379 L18.828125,16.27604103088379 L18.828125,18.6011905670166 L11.953125,0Z"/>
    <mask id="mask-2" maskUnits="userSpaceOnUse" maskContentUnits="userSpaceOnUse">
      <rect opacity="1" x="0" y="0" width="24" height="24" fill="Black"/>
      <use xlink:href="#path-1" fill="White"/>
    </mask>
    <rect id="rect-3" opacity="1" x="0" y="0" width="24" height="24" rx="0" ry="0"/>
  </defs>
  <g opacity="1">
    <g opacity="1">
      <g opacity="1">
        <use xlink:href="#path-1" fill="rgb(128,151,177)" fill-opacity="1"/>
      </g>
      <g mask="url(#mask-2)">
        <g transform="translate(-2, -2)" opacity="1">
          <g opacity="1">
            <use xlink:href="#rect-3" fill="rgb(191,197,210)" fill-opacity="1"/>
          </g>
        </g>
      </g>
    </g>
  </g>
</svg>