<?xml version="1.0" encoding="utf-8"?>
<svg version="1.1" xmlns="http://www.w3.org/2000/svg" xmlns:xlink="http://www.w3.org/1999/xlink" height="24" width="24">
  <defs>
    <path id="path-1" opacity="1" fill-rule="evenodd" d="M7.69999885559082,0.3000030517578125 L1.2999992370605469,0.3000030517578125 C0.7480841875076294,0.3000030517578125 0.2999992370605469,0.748088002204895 0.2999992370605469,1.3000030517578125 L0.2999992370605469,7.700002670288086 C0.2999992370605469,8.251917839050293 0.7480841875076294,8.700002670288086 1.2999992370605469,8.700002670288086 L7.69999885559082,8.700002670288086 C8.251914024353027,8.700002670288086 8.69999885559082,8.251917839050293 8.69999885559082,7.700002670288086 L8.69999885559082,1.3000030517578125 C8.69999885559082,0.748088002204895 8.251914024353027,0.3000030517578125 7.69999885559082,0.3000030517578125 L12.299999237060547,0.3000030517578125 L18.69999885559082,0.3000030517578125 C19.251914978027344,0.3000030517578125 19.69999885559082,0.748088002204895 19.69999885559082,1.3000030517578125 L19.69999885559082,7.700002670288086 C19.69999885559082,8.251917839050293 19.251914978027344,8.700002670288086 18.69999885559082,8.700002670288086 L12.299999237060547,8.700002670288086 C11.74808406829834,8.700002670288086 11.299999237060547,8.251917839050293 11.299999237060547,7.700002670288086 L11.299999237060547,1.3000030517578125 C11.299999237060547,0.748088002204895 11.74808406829834,0.3000030517578125 12.299999237060547,0.3000030517578125 L1.75,1.75 L7.25,1.75 L7.25,7.25 L1.75,7.25 L1.75,1.75 L18.25,1.75 L12.75,1.75 L12.75,7.25 L18.25,7.25 L18.25,1.75 L7.69999885559082,11.300003051757812 L1.2999992370605469,11.300003051757812 C0.7480841875076294,11.300003051757812 0.2999992370605469,11.748087882995605 0.2999992370605469,12.300003051757812 L0.2999992370605469,18.700002670288086 C0.2999992370605469,19.25191879272461 0.7480841875076294,19.700002670288086 1.2999992370605469,19.700002670288086 L7.69999885559082,19.700002670288086 C8.251914024353027,19.700002670288086 8.69999885559082,19.25191879272461 8.69999885559082,18.700002670288086 L8.69999885559082,12.300003051757812 C8.69999885559082,11.748087882995605 8.251914024353027,11.300003051757812 7.69999885559082,11.300003051757812 L18.69999885559082,11.300003051757812 L12.299999237060547,11.300003051757812 C11.74808406829834,11.300003051757812 11.299999237060547,11.748087882995605 11.299999237060547,12.300003051757812 L11.299999237060547,18.700002670288086 C11.299999237060547,19.25191879272461 11.74808406829834,19.700002670288086 12.299999237060547,19.700002670288086 L18.69999885559082,19.700002670288086 C19.251914978027344,19.700002670288086 19.69999885559082,19.25191879272461 19.69999885559082,18.700002670288086 L19.69999885559082,12.300003051757812 C19.69999885559082,11.748087882995605 19.251914978027344,11.300003051757812 18.69999885559082,11.300003051757812 L7.25,12.75 L1.75,12.75 L1.75,18.25 L7.25,18.25 L7.25,12.75 L12.75,12.75 L18.25,12.75 L18.25,18.25 L12.75,18.25 L12.75,12.75 L7.69999885559082,0.3000030517578125Z"/>
    <mask id="mask-2" maskUnits="userSpaceOnUse" maskContentUnits="userSpaceOnUse">
      <rect opacity="1" x="0" y="0" width="24" height="24" fill="Black"/>
      <use xlink:href="#path-1" fill="White"/>
    </mask>
    <rect id="rect-3" opacity="1" x="0" y="0" width="24" height="24" rx="0" ry="0"/>
  </defs>
  <g opacity="1">
    <g opacity="1">
      <g opacity="1">
        <use xlink:href="#path-1" fill="rgb(88,84,107)" fill-opacity="1"/>
      </g>
      <g mask="url(#mask-2)">
        <g transform="translate(-2, -2)" opacity="1">
          <g opacity="1">
            <use xlink:href="#rect-3" fill="rgb(46,91,255)" fill-opacity="1"/>
          </g>
        </g>
      </g>
    </g>
  </g>
</svg>