<?xml version="1.0" encoding="utf-8"?>
<svg version="1.1" xmlns="http://www.w3.org/2000/svg" xmlns:xlink="http://www.w3.org/1999/xlink" height="24" width="24">
  <defs>
    <path id="path-1" opacity="1" fill-rule="evenodd" d="M19.538070678710938,8.526256561279297 L18.456851959228516,8.413326263427734 C18.32994842529297,7.927724361419678 18.157360076904297,7.464709281921387 17.92893409729004,7.024280071258545 L18.614213943481445,6.103896141052246 C18.781726837158203,5.878035068511963 18.766496658325195,5.556182861328125 18.583755493164062,5.347261428833008 L17.233503341674805,3.828345537185669 C17.050762176513672,3.6194241046905518 16.75126838684082,3.6024844646453857 16.5482234954834,3.7888197898864746 L15.72081184387207,4.551101207733154 C15.329949378967285,4.302653789520264 14.908629417419434,4.105025291442871 14.477157592773438,3.963862180709839 L14.37563419342041,2.766798496246338 C14.35025405883789,2.478825569152832 14.131979942321777,2.258610963821411 13.868020057678223,2.258610963821411 L12.182741165161133,2.258610963821411 L12.182741165161133,0.5646527409553528 C12.182741165161133,0.254093736410141 11.954315185546875,0 11.675127029418945,0 C11.395938873291016,0 11.167512893676758,0.254093736410141 11.167512893676758,0.5646527409553528 L11.167512893676758,3.387916326522827 L9.248730659484863,3.387916326522827 C8.431471824645996,3.387916326522827 7.65482234954834,3.8170526027679443 7.157360553741455,4.5398077964782715 L5.065989971160889,7.60587215423584 L1.5482233762741089,8.673066139221191 C0.6345177888870239,8.949746131896973 0.005076142027974129,9.870129585266113 0,10.926030158996582 L0,12.42236042022705 C0.005076142027974129,13.709768295288086 0.9492385983467102,14.748729705810547 2.1065990924835205,14.748729705810547 L2.3807106018066406,14.748729705810547 C2.7614212036132812,16.32411003112793 4.218274116516113,17.250141143798828 5.634517669677734,16.82665252685547 C6.543147087097168,16.549972534179688 7.258883476257324,15.7594575881958 7.502538204193115,14.748729705810547 L11.167512893676758,14.748729705810547 L11.167512893676758,19.435346603393555 C11.167512893676758,19.745906829833984 11.395938873291016,20 11.675127029418945,20 C11.954315185546875,20 12.182741165161133,19.745906829833984 12.182741165161133,19.435346603393555 L12.182741165161133,18.080181121826172 L13.868020057678223,18.080181121826172 C14.131979942321777,18.080181121826172 14.35025405883789,17.859966278076172 14.37563419342041,17.566347122192383 L14.477157592773438,16.363636016845703 C14.913705825805664,16.22247314453125 15.329949378967285,16.03049087524414 15.7258882522583,15.782044410705566 L16.553298950195312,16.54432487487793 C16.756345748901367,16.730661392211914 17.050762176513672,16.713720321655273 17.233503341674805,16.510446548461914 L18.59898567199707,14.991530418395996 C18.781726837158203,14.78825569152832 18.796955108642578,14.455110549926758 18.62944221496582,14.229249000549316 L17.944162368774414,13.30886459350586 C18.167512893676758,12.868435859680176 18.345178604125977,12.405420303344727 18.472082138061523,11.92546558380127 L19.538070678710938,11.812535285949707 C19.796955108642578,11.784302711486816 20,11.541501998901367 20,11.247882843017578 L20,9.085262298583984 C20,8.797289848327637 19.796955108642578,8.554489135742188 19.538070678710938,8.526256561279297 L18.020305633544922,10.830039978027344 L18.984771728515625,10.728402137756348 L18.984771728515625,9.599096298217773 L18.005077362060547,9.491812705993652 C17.781726837158203,9.469226837158203 17.604061126708984,9.294183731079102 17.553298950195312,9.051383018493652 C17.431472778320312,8.41897201538086 17.203044891357422,7.820440292358398 16.883249282836914,7.28402042388916 C16.756345748901367,7.075098991394043 16.771574020385742,6.804065704345703 16.913705825805664,6.612083435058594 L17.538070678710938,5.770750999450684 L16.837562561035156,4.985883712768555 L16.09136962890625,5.674759864807129 C15.918781280517578,5.832862854003906 15.680203437805176,5.849802494049072 15.492385864257812,5.714285850524902 C15.00507640838623,5.364201068878174 14.467004776000977,5.110107421875 13.898477554321289,4.968944072723389 C13.68527889251709,4.918125152587891 13.522842407226562,4.714850425720215 13.502537727355957,4.472049713134766 L13.406091690063477,3.3935630321502686 L12.182741165161133,3.3935630321502686 L12.182741165161133,6.595144271850586 C12.64974594116211,6.476567268371582 13.137056350708008,6.476567268371582 13.609136581420898,6.595144271850586 C15.38071060180664,7.0355730056762695 16.497461318969727,8.989272117614746 16.10152244567871,10.959909439086914 C15.710659980773926,12.930547714233398 13.954315185546875,14.172783851623535 12.182741165161133,13.732355117797852 L12.182741165161133,16.945228576660156 L13.41116714477539,16.945228576660156 L13.502537727355957,15.861095428466797 C13.522842407226562,15.618294715881348 13.680203437805176,15.415019989013672 13.898477554321289,15.364201545715332 C14.467004776000977,15.228684425354004 15.00507640838623,14.974591255187988 15.487309455871582,14.61885929107666 C15.675127029418945,14.477696418762207 15.918781280517578,14.494636535644531 16.09136962890625,14.652738571166992 L16.842639923095703,15.335968971252441 L17.553298950195312,14.545454978942871 L16.934009552001953,13.709769248962402 C16.79187774658203,13.517786979675293 16.776649475097656,13.252400398254395 16.89847755432129,13.043478965759277 C17.218273162841797,12.501412391662598 17.446701049804688,11.90287971496582 17.573604583740234,11.270468711853027 C17.61928939819336,11.03331470489502 17.802030563354492,10.852625846862793 18.020305633544922,10.830039978027344 L7.573604106903076,13.613777160644531 L11.167512893676758,13.613777160644531 L11.167512893676758,4.522868633270264 L9.253807067871094,4.522868633270264 C8.75126838684082,4.522868633270264 8.2741117477417,4.782608985900879 7.969542980194092,5.228684425354004 L5.766497611999512,8.441558837890625 C5.700507640838623,8.543195724487305 5.604061126708984,8.610954284667969 5.497461795806885,8.6448335647583 L1.8121827840805054,9.762845993041992 C1.3401015996932983,9.909655570983887 1.015228509902954,10.383964538574219 1.0101523399353027,10.926031112670898 L1.0101523399353027,12.41671371459961 C1.015228509902954,13.083003997802734 1.5025380849838257,13.619424819946289 2.101522922515869,13.613777160644531 L2.3045685291290283,13.613777160644531 C2.456852912902832,12.264257431030273 3.411167621612549,11.20271110534668 4.619289398193359,11.038961410522461 C6.071065902709961,10.846979141235352 7.395939350128174,11.993224143981934 7.573604106903076,13.613777160644531 L12.182741165161133,7.769621849060059 C13.370558738708496,7.329192638397217 14.65482234954834,8.04630184173584 15.050761222839355,9.373235702514648 C15.446701049804688,10.700169563293457 14.802030563354492,12.12309455871582 13.609136581420898,12.56352424621582 C13.147208213806152,12.732919692993164 12.644670486450195,12.732919692993164 12.182741165161133,12.56352424621582 L12.182741165161133,7.769621849060059 L4.939086437225342,15.804630279541016 C4.0355329513549805,15.804630279541016 3.299492359161377,14.985883712768555 3.299492359161377,13.980802536010742 C3.299492359161377,12.975720405578613 4.0355329513549805,12.156973838806152 4.939086437225342,12.156973838806152 C5.842639923095703,12.156973838806152 6.578680038452148,12.975720405578613 6.578680038452148,13.980802536010742 C6.578680038452148,14.985883712768555 5.847715377807617,15.804630279541016 4.939086437225342,15.804630279541016 L19.538070678710938,8.526256561279297Z"/>
    <mask id="mask-2" maskUnits="userSpaceOnUse" maskContentUnits="userSpaceOnUse">
      <rect opacity="1" x="0" y="0" width="24" height="24" fill="Black"/>
      <use xlink:href="#path-1" fill="White"/>
    </mask>
    <rect id="rect-3" opacity="1" x="0" y="0" width="24" height="24" rx="0" ry="0"/>
  </defs>
  <g opacity="1">
    <g opacity="1">
      <g opacity="1">
        <use xlink:href="#path-1" fill="rgb(128,151,177)" fill-opacity="1"/>
      </g>
      <g mask="url(#mask-2)">
        <g transform="translate(-2, -2)" opacity="1">
          <g opacity="1">
            <use xlink:href="#rect-3" fill="rgb(191,197,210)" fill-opacity="1"/>
          </g>
        </g>
      </g>
    </g>
  </g>
</svg>